<svg width="1608" height="435" viewBox="0 0 1608 435" fill="none" xmlns="http://www.w3.org/2000/svg">
<g filter="url(#filter0_d_5_47)">
<path d="M1248.26 137C1248.26 133.686 1250.93 131 1254.22 131H1284.04C1287.33 131 1290 133.686 1290 137V297C1290 300.314 1287.33 303 1284.04 303H1254.22C1250.93 303 1248.26 300.314 1248.26 297V137Z" fill="white"/>
<path d="M1129 137C1129 133.686 1131.67 131 1134.96 131H1164.78C1168.07 131 1170.74 133.686 1170.74 137V297C1170.74 300.314 1168.07 303 1164.78 303H1134.96C1131.67 303 1129 300.314 1129 297V137Z" fill="white"/>
<path d="M1171.27 207.944C1170.92 207.32 1170.68 206.637 1170.57 205.928L1159.88 138.722C1158.84 132.161 1167.6 129.012 1170.92 134.751L1209.66 201.599C1210.2 202.517 1210.48 203.56 1210.48 204.622V258H1203.01C1200.87 258 1198.89 256.841 1197.83 254.964L1171.27 207.944Z" fill="white"/>
<path d="M1247.71 207.944C1248.06 207.32 1248.3 206.637 1248.41 205.928L1259.1 138.722C1260.14 132.161 1251.39 129.012 1248.06 134.751L1209.32 201.599C1208.79 202.517 1208.51 203.56 1208.51 204.622V258H1215.97C1218.11 258 1220.09 256.841 1221.15 254.964L1247.71 207.944Z" fill="white"/>
</g>
<g filter="url(#filter1_d_5_47)">
<path d="M1047 137C1047 133.686 1049.69 131 1053 131H1083C1086.31 131 1089 133.686 1089 137V297C1089 300.314 1086.31 303 1083 303H1053C1049.69 303 1047 300.314 1047 297V137Z" fill="white"/>
<path d="M927 137C927 133.686 929.686 131 933 131H963C966.314 131 969 133.686 969 137V297C969 300.314 966.314 303 963 303H933C929.686 303 927 300.314 927 297V137Z" fill="white"/>
<path d="M969.537 207.944C969.182 207.32 968.942 206.637 968.828 205.928L958.075 138.722C957.026 132.161 965.836 129.012 969.183 134.751L1008.17 201.599C1008.7 202.517 1008.98 203.56 1008.98 204.622V258H1001.47C999.316 258 997.324 256.841 996.257 254.964L969.537 207.944Z" fill="white"/>
<path d="M1046.45 207.944C1046.8 207.32 1047.04 206.637 1047.15 205.928L1057.91 138.722C1058.96 132.161 1050.15 129.012 1046.8 134.751L1007.82 201.599C1007.28 202.517 1007 203.56 1007 204.622V258H1014.51C1016.67 258 1018.66 256.841 1019.73 254.964L1046.45 207.944Z" fill="white"/>
</g>
<g filter="url(#filter2_d_5_47)">
<path d="M1320 137C1320 133.686 1322.69 131 1326 131H1404C1407.31 131 1410 133.686 1410 137V163C1410 166.314 1407.31 169 1404 169H1326C1322.69 169 1320 166.314 1320 163V137Z" fill="white"/>
<path d="M1320 271C1320 267.686 1322.69 265 1326 265H1404C1407.31 265 1410 267.686 1410 271V297C1410 300.314 1407.31 303 1404 303H1326C1322.69 303 1320 300.314 1320 297V271Z" fill="white"/>
<path d="M1344 137C1344 133.686 1346.69 131 1350 131H1380C1383.31 131 1386 133.686 1386 137V297C1386 300.314 1383.31 303 1380 303H1350C1346.69 303 1344 300.314 1344 297V137Z" fill="white"/>
</g>
<g filter="url(#filter3_d_5_47)">
<path d="M1477.65 137C1477.65 133.686 1480.31 131 1483.6 131H1513.38C1516.67 131 1519.34 133.686 1519.34 137V297C1519.34 300.314 1516.67 303 1513.38 303H1483.6C1480.31 303 1477.65 300.314 1477.65 297V137Z" fill="white"/>
<path d="M1477.65 137C1477.65 133.686 1480.31 131 1483.6 131H1513.38C1516.67 131 1519.34 133.686 1519.34 137V297C1519.34 300.314 1516.67 303 1513.38 303H1483.6C1480.31 303 1477.65 300.314 1477.65 297V137Z" fill="white"/>
<path d="M1430 137C1430 133.686 1432.67 131 1435.96 131H1559.04C1562.33 131 1565 133.686 1565 137V163C1565 166.314 1562.33 169 1559.04 169H1435.96C1432.67 169 1430 166.314 1430 163V137Z" fill="white"/>
</g>
<g filter="url(#filter4_d_5_47)">
<path d="M748 180.467H788.8V254.533H748V180.467Z" fill="white"/>
<path d="M843.2 180.467H884V254.533H843.2V180.467Z" fill="white"/>
<path d="M748 180.467H788.8C788.8 176.234 791.013 172.312 794.631 170.135L798.514 167.797L800.736 166.748C809.852 162.445 820.34 162.132 829.695 165.886L832.153 166.873C833.682 167.486 835.116 168.312 836.416 169.325L838.599 171.029C841.502 173.294 843.2 176.777 843.2 180.467H884C880.606 153.794 859.003 133.183 832.279 131.12L820.399 130.204C816.824 129.928 813.233 129.932 809.659 130.217L799.712 131.009C772.979 133.137 751.396 153.779 748 180.467Z" fill="white"/>
<path d="M748 254.533H788.8C788.8 258.766 791.013 262.688 794.631 264.865L798.514 267.203L800.736 268.252C809.852 272.555 820.34 272.868 829.695 269.114L832.153 268.127C833.682 267.514 835.116 266.688 836.416 265.675L838.599 263.971C841.502 261.706 843.2 258.223 843.2 254.533H884C880.606 281.206 859.003 301.817 832.279 303.88L820.399 304.796C816.824 305.072 813.233 305.068 809.659 304.783L799.712 303.991C772.979 301.863 751.396 281.221 748 254.533Z" fill="white"/>
</g>
<g filter="url(#filter5_d_5_47)">
<path d="M579 180.178H619.5V253.822H579V180.178Z" fill="white"/>
<path d="M673.5 250.117C673.5 246.811 676.167 244.132 679.456 244.132H708.044C711.333 244.132 714 246.811 714 250.117V253.822H673.5V250.117Z" fill="white"/>
<path d="M673.5 180.178H714V183.883C714 187.189 711.333 189.868 708.044 189.868H679.456C676.167 189.868 673.5 187.189 673.5 183.883V180.178Z" fill="white"/>
<path d="M579 180.178H619.5C619.5 175.97 621.697 172.07 625.288 169.905L629.143 167.581L631.348 166.538C640.397 162.259 650.808 161.949 660.094 165.681L662.535 166.662C664.052 167.272 665.476 168.093 666.766 169.101L668.933 170.795C671.815 173.047 673.5 176.51 673.5 180.178H714C710.631 153.658 689.186 133.165 662.66 131.114L650.867 130.203C647.318 129.928 643.754 129.933 640.206 130.216L630.332 131.003C603.795 133.119 582.371 153.644 579 180.178Z" fill="white"/>
<path d="M579 253.822H619.5C619.5 258.03 621.697 261.93 625.288 264.095L629.143 266.419L631.348 267.462C640.397 271.741 650.808 272.051 660.094 268.319L662.535 267.338C664.052 266.728 665.476 265.907 666.766 264.899L668.933 263.205C671.815 260.953 673.5 257.49 673.5 253.822H714C710.631 280.342 689.186 300.835 662.66 302.886L650.867 303.797C647.318 304.072 643.754 304.067 640.206 303.784L630.332 302.997C603.795 300.881 582.371 280.356 579 253.822Z" fill="white"/>
</g>
<g filter="url(#filter6_d_5_47)">
<path d="M55 370.472H287.032C287.032 388.599 272.296 403.271 254.169 403.194L86.8668 402.476C69.2452 402.4 55 388.094 55 370.472Z" fill="white"/>
<path d="M55 70.7222H287.032C287.032 52.5954 272.296 37.9225 254.169 38.0003L86.8668 38.7183C69.2452 38.794 55 53.1004 55 70.7222Z" fill="white"/>
<path d="M55 69.7263H86.8671V370.472H55V69.7263Z" fill="white"/>
<path d="M120.726 103.585H220.31V135.452H120.726V103.585Z" fill="white"/>
<path d="M120.726 171.303H220.31V203.17H120.726V171.303Z" fill="white"/>
<path d="M120.726 304.746H220.31V336.613H120.726V304.746Z" fill="white"/>
<path d="M120.726 237.028H220.31V268.895H120.726V237.028Z" fill="white"/>
<g filter="url(#filter7_d_5_47)">
<path d="M254.169 304.746H321.887V336.613H254.169V304.746Z" fill="white"/>
<path d="M254.169 237.028H423.463V268.895H254.169V237.028Z" fill="white"/>
<path d="M254.169 171.303H357.737V203.17H254.169V171.303Z" fill="white"/>
<path d="M254.169 103.585H423.463V135.452H254.169V103.585Z" fill="white"/>
<path d="M453.338 119.519C453.338 138.218 438.179 153.377 419.48 153.377C400.78 153.377 385.621 138.218 385.621 119.519C385.621 100.819 400.78 85.6598 419.48 85.6598C438.179 85.6598 453.338 100.819 453.338 119.519Z" fill="white"/>
<path d="M385.621 187.236C385.621 205.936 370.462 221.095 351.762 221.095C333.062 221.095 317.903 205.936 317.903 187.236C317.903 168.536 333.062 153.377 351.762 153.377C370.462 153.377 385.621 168.536 385.621 187.236Z" fill="white"/>
<path d="M453.338 252.962C453.338 271.662 438.179 286.821 419.48 286.821C400.78 286.821 385.621 271.662 385.621 252.962C385.621 234.262 400.78 219.103 419.48 219.103C438.179 219.103 453.338 234.262 453.338 252.962Z" fill="white"/>
<path d="M355.745 320.679C355.745 339.379 340.586 354.538 321.887 354.538C303.187 354.538 288.028 339.379 288.028 320.679C288.028 301.98 303.187 286.821 321.887 286.821C340.586 286.821 355.745 301.98 355.745 320.679Z" fill="white"/>
</g>
</g>
<defs>
<filter id="filter0_d_5_47" x="1125" y="127" width="177" height="188" filterUnits="userSpaceOnUse" color-interpolation-filters="sRGB">
<feFlood flood-opacity="0" result="BackgroundImageFix"/>
<feColorMatrix in="SourceAlpha" type="matrix" values="0 0 0 0 0 0 0 0 0 0 0 0 0 0 0 0 0 0 127 0" result="hardAlpha"/>
<feOffset dx="4" dy="4"/>
<feGaussianBlur stdDeviation="4"/>
<feComposite in2="hardAlpha" operator="out"/>
<feColorMatrix type="matrix" values="0 0 0 0 0 0 0 0 0 0 0 0 0 0 0 0 0 0 0.5 0"/>
<feBlend mode="normal" in2="BackgroundImageFix" result="effect1_dropShadow_5_47"/>
<feBlend mode="normal" in="SourceGraphic" in2="effect1_dropShadow_5_47" result="shape"/>
</filter>
<filter id="filter1_d_5_47" x="923" y="127" width="178" height="188" filterUnits="userSpaceOnUse" color-interpolation-filters="sRGB">
<feFlood flood-opacity="0" result="BackgroundImageFix"/>
<feColorMatrix in="SourceAlpha" type="matrix" values="0 0 0 0 0 0 0 0 0 0 0 0 0 0 0 0 0 0 127 0" result="hardAlpha"/>
<feOffset dx="4" dy="4"/>
<feGaussianBlur stdDeviation="4"/>
<feComposite in2="hardAlpha" operator="out"/>
<feColorMatrix type="matrix" values="0 0 0 0 0 0 0 0 0 0 0 0 0 0 0 0 0 0 0.5 0"/>
<feBlend mode="normal" in2="BackgroundImageFix" result="effect1_dropShadow_5_47"/>
<feBlend mode="normal" in="SourceGraphic" in2="effect1_dropShadow_5_47" result="shape"/>
</filter>
<filter id="filter2_d_5_47" x="1316" y="127" width="106" height="188" filterUnits="userSpaceOnUse" color-interpolation-filters="sRGB">
<feFlood flood-opacity="0" result="BackgroundImageFix"/>
<feColorMatrix in="SourceAlpha" type="matrix" values="0 0 0 0 0 0 0 0 0 0 0 0 0 0 0 0 0 0 127 0" result="hardAlpha"/>
<feOffset dx="4" dy="4"/>
<feGaussianBlur stdDeviation="4"/>
<feComposite in2="hardAlpha" operator="out"/>
<feColorMatrix type="matrix" values="0 0 0 0 0 0 0 0 0 0 0 0 0 0 0 0 0 0 0.5 0"/>
<feBlend mode="normal" in2="BackgroundImageFix" result="effect1_dropShadow_5_47"/>
<feBlend mode="normal" in="SourceGraphic" in2="effect1_dropShadow_5_47" result="shape"/>
</filter>
<filter id="filter3_d_5_47" x="1426" y="127" width="151" height="188" filterUnits="userSpaceOnUse" color-interpolation-filters="sRGB">
<feFlood flood-opacity="0" result="BackgroundImageFix"/>
<feColorMatrix in="SourceAlpha" type="matrix" values="0 0 0 0 0 0 0 0 0 0 0 0 0 0 0 0 0 0 127 0" result="hardAlpha"/>
<feOffset dx="4" dy="4"/>
<feGaussianBlur stdDeviation="4"/>
<feComposite in2="hardAlpha" operator="out"/>
<feColorMatrix type="matrix" values="0 0 0 0 0 0 0 0 0 0 0 0 0 0 0 0 0 0 0.5 0"/>
<feBlend mode="normal" in2="BackgroundImageFix" result="effect1_dropShadow_5_47"/>
<feBlend mode="normal" in="SourceGraphic" in2="effect1_dropShadow_5_47" result="shape"/>
</filter>
<filter id="filter4_d_5_47" x="744" y="126" width="152" height="191" filterUnits="userSpaceOnUse" color-interpolation-filters="sRGB">
<feFlood flood-opacity="0" result="BackgroundImageFix"/>
<feColorMatrix in="SourceAlpha" type="matrix" values="0 0 0 0 0 0 0 0 0 0 0 0 0 0 0 0 0 0 127 0" result="hardAlpha"/>
<feOffset dx="4" dy="4"/>
<feGaussianBlur stdDeviation="4"/>
<feComposite in2="hardAlpha" operator="out"/>
<feColorMatrix type="matrix" values="0 0 0 0 0 0 0 0 0 0 0 0 0 0 0 0 0 0 0.5 0"/>
<feBlend mode="normal" in2="BackgroundImageFix" result="effect1_dropShadow_5_47"/>
<feBlend mode="normal" in="SourceGraphic" in2="effect1_dropShadow_5_47" result="shape"/>
</filter>
<filter id="filter5_d_5_47" x="575" y="126" width="151" height="190" filterUnits="userSpaceOnUse" color-interpolation-filters="sRGB">
<feFlood flood-opacity="0" result="BackgroundImageFix"/>
<feColorMatrix in="SourceAlpha" type="matrix" values="0 0 0 0 0 0 0 0 0 0 0 0 0 0 0 0 0 0 127 0" result="hardAlpha"/>
<feOffset dx="4" dy="4"/>
<feGaussianBlur stdDeviation="4"/>
<feComposite in2="hardAlpha" operator="out"/>
<feColorMatrix type="matrix" values="0 0 0 0 0 0 0 0 0 0 0 0 0 0 0 0 0 0 0.5 0"/>
<feBlend mode="normal" in2="BackgroundImageFix" result="effect1_dropShadow_5_47"/>
<feBlend mode="normal" in="SourceGraphic" in2="effect1_dropShadow_5_47" result="shape"/>
</filter>
<filter id="filter6_d_5_47" x="51" y="34" width="414.338" height="381.194" filterUnits="userSpaceOnUse" color-interpolation-filters="sRGB">
<feFlood flood-opacity="0" result="BackgroundImageFix"/>
<feColorMatrix in="SourceAlpha" type="matrix" values="0 0 0 0 0 0 0 0 0 0 0 0 0 0 0 0 0 0 127 0" result="hardAlpha"/>
<feOffset dx="4" dy="4"/>
<feGaussianBlur stdDeviation="4"/>
<feComposite in2="hardAlpha" operator="out"/>
<feColorMatrix type="matrix" values="0 0 0 0 0 0 0 0 0 0 0 0 0 0 0 0 0 0 0.5 0"/>
<feBlend mode="normal" in2="BackgroundImageFix" result="effect1_dropShadow_5_47"/>
<feBlend mode="normal" in="SourceGraphic" in2="effect1_dropShadow_5_47" result="shape"/>
</filter>
<filter id="filter7_d_5_47" x="250.169" y="81.6598" width="207.169" height="276.878" filterUnits="userSpaceOnUse" color-interpolation-filters="sRGB">
<feFlood flood-opacity="0" result="BackgroundImageFix"/>
<feColorMatrix in="SourceAlpha" type="matrix" values="0 0 0 0 0 0 0 0 0 0 0 0 0 0 0 0 0 0 127 0" result="hardAlpha"/>
<feOffset/>
<feGaussianBlur stdDeviation="2"/>
<feComposite in2="hardAlpha" operator="out"/>
<feColorMatrix type="matrix" values="0 0 0 0 1 0 0 0 0 1 0 0 0 0 1 0 0 0 1 0"/>
<feBlend mode="normal" in2="BackgroundImageFix" result="effect1_dropShadow_5_47"/>
<feBlend mode="normal" in="SourceGraphic" in2="effect1_dropShadow_5_47" result="shape"/>
</filter>
</defs>
</svg>
