<svg width="510" height="435" viewBox="0 0 510 435" fill="none" xmlns="http://www.w3.org/2000/svg">
<g filter="url(#filter0_d_5_58)">
<path d="M55 370.472H287.032C287.032 388.599 272.296 403.271 254.169 403.194L86.8668 402.476C69.2452 402.4 55 388.094 55 370.472Z" fill="white"/>
<path d="M55 70.7222H287.032C287.032 52.5954 272.296 37.9225 254.169 38.0003L86.8668 38.7183C69.2452 38.794 55 53.1004 55 70.7222Z" fill="white"/>
<path d="M55 69.7263H86.8671V370.472H55V69.7263Z" fill="white"/>
<path d="M120.726 103.585H220.31V135.452H120.726V103.585Z" fill="white"/>
<path d="M120.726 171.303H220.31V203.17H120.726V171.303Z" fill="white"/>
<path d="M120.726 304.746H220.31V336.613H120.726V304.746Z" fill="white"/>
<path d="M120.726 237.028H220.31V268.895H120.726V237.028Z" fill="white"/>
<g filter="url(#filter1_d_5_58)">
<path d="M254.169 304.746H321.887V336.613H254.169V304.746Z" fill="white"/>
<path d="M254.169 237.028H423.463V268.896H254.169V237.028Z" fill="white"/>
<path d="M254.169 171.303H357.737V203.17H254.169V171.303Z" fill="white"/>
<path d="M254.169 103.585H423.463V135.452H254.169V103.585Z" fill="white"/>
<path d="M453.338 119.519C453.338 138.218 438.179 153.377 419.48 153.377C400.78 153.377 385.621 138.218 385.621 119.519C385.621 100.819 400.78 85.6599 419.48 85.6599C438.179 85.6599 453.338 100.819 453.338 119.519Z" fill="white"/>
<path d="M385.621 187.236C385.621 205.936 370.462 221.095 351.762 221.095C333.062 221.095 317.903 205.936 317.903 187.236C317.903 168.537 333.062 153.377 351.762 153.377C370.462 153.377 385.621 168.537 385.621 187.236Z" fill="white"/>
<path d="M453.338 252.962C453.338 271.662 438.179 286.821 419.48 286.821C400.78 286.821 385.621 271.662 385.621 252.962C385.621 234.262 400.78 219.103 419.48 219.103C438.179 219.103 453.338 234.262 453.338 252.962Z" fill="white"/>
<path d="M355.745 320.68C355.745 339.379 340.586 354.538 321.887 354.538C303.187 354.538 288.028 339.379 288.028 320.68C288.028 301.98 303.187 286.821 321.887 286.821C340.586 286.821 355.745 301.98 355.745 320.68Z" fill="white"/>
</g>
</g>
<defs>
<filter id="filter0_d_5_58" x="51" y="34" width="414.338" height="381.194" filterUnits="userSpaceOnUse" color-interpolation-filters="sRGB">
<feFlood flood-opacity="0" result="BackgroundImageFix"/>
<feColorMatrix in="SourceAlpha" type="matrix" values="0 0 0 0 0 0 0 0 0 0 0 0 0 0 0 0 0 0 127 0" result="hardAlpha"/>
<feOffset dx="4" dy="4"/>
<feGaussianBlur stdDeviation="4"/>
<feComposite in2="hardAlpha" operator="out"/>
<feColorMatrix type="matrix" values="0 0 0 0 0 0 0 0 0 0 0 0 0 0 0 0 0 0 0.5 0"/>
<feBlend mode="normal" in2="BackgroundImageFix" result="effect1_dropShadow_5_58"/>
<feBlend mode="normal" in="SourceGraphic" in2="effect1_dropShadow_5_58" result="shape"/>
</filter>
<filter id="filter1_d_5_58" x="250.169" y="81.6599" width="207.169" height="276.878" filterUnits="userSpaceOnUse" color-interpolation-filters="sRGB">
<feFlood flood-opacity="0" result="BackgroundImageFix"/>
<feColorMatrix in="SourceAlpha" type="matrix" values="0 0 0 0 0 0 0 0 0 0 0 0 0 0 0 0 0 0 127 0" result="hardAlpha"/>
<feOffset/>
<feGaussianBlur stdDeviation="2"/>
<feComposite in2="hardAlpha" operator="out"/>
<feColorMatrix type="matrix" values="0 0 0 0 1 0 0 0 0 1 0 0 0 0 1 0 0 0 1 0"/>
<feBlend mode="normal" in2="BackgroundImageFix" result="effect1_dropShadow_5_58"/>
<feBlend mode="normal" in="SourceGraphic" in2="effect1_dropShadow_5_58" result="shape"/>
</filter>
</defs>
</svg>
