<svg width="1608" height="435" viewBox="0 0 1608 435" fill="none" xmlns="http://www.w3.org/2000/svg">
<path d="M50 375.048L292.903 375.048C292.903 394.024 277.476 409.384 258.5 409.303L83.3597 408.551C64.9126 408.472 50 393.495 50 375.048Z" fill="white"/>
<path d="M50 61.2552H292.903C292.903 42.2791 277.476 26.9189 258.5 27.0003L83.3597 27.752C64.9126 27.8312 50 42.8078 50 61.2552Z" fill="white"/>
<path d="M50 60.2127H83.36V375.169H50.2099L50 375.048V60.2127Z" fill="white"/>
<path d="M118.805 95.6577H223.055V129.018H118.805V95.6577Z" fill="white"/>
<path d="M118.805 166.548H223.055V199.908H118.805V166.548Z" fill="white"/>
<path d="M118.805 306.243H223.055V339.603H118.805V306.243Z" fill="white"/>
<path d="M118.805 235.353H223.055V268.713H118.805V235.353Z" fill="white"/>
<path d="M258.5 306.243H329.39V339.603H258.5V306.243Z" fill="white"/>
<path d="M258.5 235.353H435.725V268.713H258.5V235.353Z" fill="white"/>
<path d="M258.5 166.548H366.92V199.908H258.5V166.548Z" fill="white"/>
<path d="M258.5 95.6576H435.725V129.018H258.5V95.6576Z" fill="white"/>
<path d="M467 112.338C467 131.913 451.131 147.783 431.555 147.783C411.979 147.783 396.11 131.913 396.11 112.338C396.11 92.7618 411.979 76.8926 431.555 76.8926C451.131 76.8926 467 92.7618 467 112.338Z" fill="white"/>
<path d="M396.11 183.228C396.11 202.803 380.241 218.673 360.665 218.673C341.089 218.673 325.22 202.803 325.22 183.228C325.22 163.652 341.089 147.783 360.665 147.783C380.241 147.783 396.11 163.652 396.11 183.228Z" fill="white"/>
<path d="M467 252.033C467 271.608 451.131 287.478 431.555 287.478C411.979 287.478 396.11 271.608 396.11 252.033C396.11 232.457 411.979 216.588 431.555 216.588C451.131 216.588 467 232.457 467 252.033Z" fill="white"/>
<path d="M364.835 322.923C364.835 342.498 348.966 358.368 329.39 358.368C309.814 358.368 293.945 342.498 293.945 322.923C293.945 303.347 309.814 287.478 329.39 287.478C348.966 287.478 364.835 303.347 364.835 322.923Z" fill="white"/>
<path d="M1121.44 125C1117.89 125 1115 127.889 1115 131.453V303.547C1115 307.111 1117.89 310 1121.44 310H1153.67C1157.23 310 1160.11 307.111 1160.11 303.547V206.404C1160.25 206.875 1160.44 207.33 1160.69 207.76L1189.39 258.334C1190.53 260.352 1192.67 261.599 1194.99 261.599H1208.99C1211.31 261.599 1213.45 260.352 1214.59 258.334L1243.29 207.76C1243.55 207.311 1243.75 206.833 1243.89 206.338V303.547C1243.89 307.111 1246.77 310 1250.33 310H1282.56C1286.11 310 1289 307.111 1289 303.547V131.453C1289 127.889 1286.11 125 1282.56 125H1250.33C1248.71 125 1247.23 125.602 1246.09 126.594C1245.16 127.12 1244.32 127.922 1243.67 129.035L1201.99 200.614L1160.31 129.035C1159.67 127.944 1158.85 127.151 1157.94 126.625C1156.8 125.614 1155.31 125 1153.67 125H1121.44Z" fill="white"/>
<path d="M905.407 125C901.869 125 899 127.889 899 131.453V303.547C899 307.111 901.869 310 905.407 310H937.444C940.983 310 943.852 307.111 943.852 303.547V206.404C943.991 206.875 944.183 207.33 944.425 207.76L972.96 258.334C974.099 260.352 976.226 261.599 978.531 261.599H992.45C994.755 261.599 996.882 260.352 998.021 258.334L1026.56 207.76C1026.81 207.311 1027.01 206.833 1027.15 206.338V303.547C1027.15 307.111 1030.02 310 1033.56 310H1065.59C1069.13 310 1072 307.111 1072 303.547V131.453C1072 127.889 1069.13 125 1065.59 125H1033.56C1031.94 125 1030.47 125.602 1029.34 126.594C1028.41 127.12 1027.58 127.922 1026.93 129.035L985.491 200.614L944.048 129.035C943.416 127.944 942.602 127.151 941.696 126.625C940.565 125.614 939.076 125 937.444 125H905.407Z" fill="white"/>
<path d="M1320 131.453C1320 127.889 1322.87 125 1326.4 125H1409.6C1413.13 125 1416 127.889 1416 131.453V159.419C1416 162.983 1413.13 165.872 1409.6 165.872H1390.4V269.128H1409.6C1413.13 269.128 1416 272.017 1416 275.581V303.547C1416 307.111 1413.13 310 1409.6 310H1326.4C1322.87 310 1320 307.111 1320 303.547V275.581C1320 272.017 1322.87 269.128 1326.4 269.128H1345.6V165.872H1326.4C1322.87 165.872 1320 162.983 1320 159.419V131.453Z" fill="white"/>
<path d="M1443.44 125C1439.88 125 1437 127.889 1437 131.453V159.419C1437 162.983 1439.88 165.872 1443.44 165.872H1488.53V303.547C1488.53 307.111 1491.41 310 1494.97 310H1527.18C1530.73 310 1533.62 307.111 1533.62 303.547V165.872H1576.56C1580.12 165.872 1583 162.983 1583 159.419V131.453C1583 127.889 1580.12 125 1576.56 125H1443.44Z" fill="white"/>
<path fill-rule="evenodd" clip-rule="evenodd" d="M762.134 126.078C733.632 128.352 710.621 150.41 707 178.927V258.073C710.621 286.59 733.632 308.648 762.134 310.922L772.739 311.768C776.55 312.072 780.379 312.077 784.19 311.782L796.857 310.803C825.348 308.599 848.381 286.574 852 258.073V178.927C848.381 150.426 825.348 128.401 796.857 126.197L784.19 125.218C780.379 124.923 776.55 124.928 772.739 125.232L762.134 126.078ZM808.5 258.073V178.927C808.5 174.985 806.69 171.263 803.595 168.843L801.267 167.022C799.882 165.939 798.352 165.057 796.722 164.401L794.101 163.347C784.128 159.336 772.945 159.669 763.226 164.268L760.857 165.389L756.717 167.887C752.86 170.214 750.5 174.405 750.5 178.927V258.073C750.5 262.595 752.86 266.786 756.717 269.113L760.857 271.611L763.226 272.732C772.945 277.331 784.128 277.664 794.101 273.653L796.722 272.599C798.352 271.943 799.882 271.061 801.267 269.978L803.595 268.157C806.69 265.737 808.5 262.015 808.5 258.073Z" fill="white"/>
<path d="M580.134 125.078C551.632 127.352 528.621 149.41 525 177.927V257.073C528.621 285.59 551.632 307.648 580.134 309.922L590.739 310.768C594.55 311.072 598.379 311.077 602.19 310.782L614.857 309.803C643.348 307.599 666.381 285.574 670 257.073V253.091C670 249.539 667.136 246.659 663.603 246.659H632.897C629.364 246.659 626.5 249.539 626.5 253.091V257.073C626.5 261.015 624.69 264.737 621.595 267.157L619.267 268.978C617.882 270.061 616.352 270.943 614.722 271.599L612.101 272.653C602.128 276.664 590.945 276.331 581.226 271.732L578.857 270.611L574.717 268.113C570.86 265.786 568.5 261.595 568.5 257.073V177.927C568.5 173.405 570.86 169.214 574.717 166.887L578.857 164.389L581.226 163.268C590.945 158.669 602.128 158.336 612.101 162.347L614.722 163.401C616.352 164.057 617.882 164.939 619.267 166.022L621.595 167.843C624.69 170.263 626.5 173.985 626.5 177.927V181.909C626.5 185.461 629.364 188.341 632.897 188.341H663.603C667.136 188.341 670 185.461 670 181.909V177.927C666.381 149.426 643.348 127.401 614.857 125.197L602.19 124.218C598.379 123.923 594.55 123.928 590.739 124.232L580.134 125.078Z" fill="white"/>
</svg>
